<svg height="384pt" viewBox="0 0 384 384" width="384pt" xmlns="http://www.w3.org/2000/svg"><path d="m112 224c29.335938 0 57.496094-11.566406 78.351562-31.976562l17.648438-.023438c26.089844 0 49.230469-12.617188 63.847656-32h18.894532c6.601562 18.625 24.402343 32 45.257812 32 26.472656 0 48-21.527344 48-48 0-12.28125-4.640625-23.503906-12.246094-32 7.605469-8.496094 12.246094-19.71875 12.246094-32 0-26.472656-21.527344-48-48-48-20.855469 0-38.65625 13.375-45.257812 32h-18.894532c-14.609375-19.382812-37.742187-32-63.808594-32l-17.703124-.039062c-20.847657-20.402344-49.007813-31.960938-78.335938-31.960938-61.761719 0-112 50.238281-112 112s50.238281 112 112 112zm208-128v-16c0-8.824219 7.175781-16 16-16s16 7.175781 16 16-7.175781 16-16 16v32c8.824219 0 16 7.175781 16 16s-7.175781 16-16 16-16-7.175781-16-16v-16h-33.617188c1.058594-5.167969 1.617188-10.519531 1.617188-16s-.558594-10.832031-1.617188-16zm-208-64c22.695312 0 44.414062 9.695312 59.585938 26.617188 13.167968 14.6875 20.414062 33.640624 20.414062 53.382812h32c0-16.65625-3.6875-32.910156-10.65625-47.703125 23.960938 2.671875 42.65625 23.039063 42.65625 47.703125 0 26.472656-21.527344 48-48.023438 48l-31.617187.046875-4.757813 5.3125c-15.160156 16.9375-36.890624 26.640625-59.601562 26.640625-44.113281 0-80-35.886719-80-80s35.886719-80 80-80zm0 0"/><path d="m32 336c0 26.472656 21.527344 48 48 48h224c26.472656 0 48-21.527344 48-48v-32h32v-32h-384v32h32zm288 0c0 8.824219-7.175781 16-16 16h-224c-8.824219 0-16-7.175781-16-16v-32h256zm0 0"/></svg>