<?xml version="1.0" encoding="iso-8859-1"?>
<!-- Generator: Adobe Illustrator 19.0.0, SVG Export Plug-In . SVG Version: 6.00 Build 0)  -->
<svg version="1.1" id="Layer_1" xmlns="http://www.w3.org/2000/svg" xmlns:xlink="http://www.w3.org/1999/xlink" x="0px" y="0px"
	 viewBox="0 0 512 512" style="enable-background:new 0 0 512 512;" xml:space="preserve">
<g>
	<g>
		<path d="M437.02,74.98C388.667,26.628,324.38,0,256,0S123.333,26.628,74.98,74.98C26.628,123.333,0,187.62,0,256
			s26.628,132.667,74.98,181.02C123.333,485.372,187.62,512,256,512s132.667-26.628,181.02-74.98
			C485.372,388.667,512,324.38,512,256S485.372,123.333,437.02,74.98z M256,491.602c-129.911,0-235.602-105.69-235.602-235.602
			S126.089,20.398,256,20.398S491.602,126.089,491.602,256S385.911,491.602,256,491.602z"/>
	</g>
</g>
<g>
	<g>
		<path d="M256,48.514C141.591,48.514,48.514,141.591,48.514,256S141.591,463.486,256,463.486S463.486,370.409,463.486,256
			S370.409,48.514,256,48.514z M256,443.088c-103.161,0-187.088-83.927-187.088-187.088S152.839,68.912,256,68.912
			S443.088,152.839,443.088,256S359.161,443.088,256,443.088z"/>
	</g>
</g>
<g>
	<g>
		<path d="M151.913,137.49l-2.286-2.287c-3.983-3.982-10.441-3.982-14.425,0c-3.983,3.983-3.983,10.441,0,14.425l2.287,2.287
			c1.992,1.991,4.602,2.987,7.212,2.987c2.61,0,5.221-0.996,7.212-2.987C155.896,147.932,155.896,141.474,151.913,137.49z"/>
	</g>
</g>
<g>
	<g>
		<path d="M98.601,245.801h-3.234c-5.633,0-10.199,4.566-10.199,10.199c0,5.633,4.566,10.199,10.199,10.199h3.234
			c5.633,0,10.199-4.566,10.199-10.199C108.8,250.367,104.234,245.801,98.601,245.801z"/>
	</g>
</g>
<g>
	<g>
		<path d="M151.914,360.086c-3.983-3.983-10.441-3.983-14.424,0l-2.287,2.287c-3.983,3.983-3.983,10.441,0,14.425
			c1.992,1.991,4.602,2.987,7.212,2.987s5.221-0.996,7.212-2.987l2.287-2.287C155.897,370.528,155.897,364.07,151.914,360.086z"/>
	</g>
</g>
<g>
	<g>
		<path d="M256,403.2c-5.633,0-10.199,4.566-10.199,10.199v3.234c0,5.633,4.566,10.199,10.199,10.199
			c5.633,0,10.199-4.566,10.199-10.199v-3.234C266.199,407.766,261.633,403.2,256,403.2z"/>
	</g>
</g>
<g>
	<g>
		<path d="M376.795,362.373l-2.286-2.287c-3.983-3.982-10.441-3.982-14.425,0c-3.983,3.983-3.983,10.441,0,14.425l2.287,2.287
			c1.992,1.991,4.602,2.987,7.212,2.987c2.61,0,5.221-0.996,7.212-2.987C380.778,372.815,380.778,366.356,376.795,362.373z"/>
	</g>
</g>
<g>
	<g>
		<path d="M416.633,245.801h-3.234c-5.633,0-10.199,4.566-10.199,10.199c0,5.633,4.566,10.199,10.199,10.199h3.234
			c5.633,0,10.199-4.566,10.199-10.199C426.833,250.367,422.266,245.801,416.633,245.801z"/>
	</g>
</g>
<g>
	<g>
		<path d="M376.796,135.204c-3.983-3.983-10.441-3.983-14.424,0l-2.287,2.287c-3.983,3.983-3.983,10.441,0,14.425
			c1.992,1.991,4.602,2.987,7.212,2.987c2.61,0,5.221-0.996,7.212-2.987l2.287-2.287
			C380.779,145.646,380.779,139.188,376.796,135.204z"/>
	</g>
</g>
<g>
	<g>
		<path d="M256,85.167c-5.633,0-10.199,4.566-10.199,10.199v4.586c0,5.633,4.566,10.199,10.199,10.199
			c5.633,0,10.199-4.566,10.199-10.199v-4.586C266.199,89.734,261.633,85.167,256,85.167z"/>
	</g>
</g>
<g>
	<g>
		<path d="M346.559,245.801h-58.211c-3.322-10.512-11.636-18.826-22.148-22.148V133.61c0-5.633-4.566-10.199-10.199-10.199
			s-10.199,4.566-10.199,10.199v90.044c-13.733,4.34-23.717,17.198-23.717,32.347c0,18.701,15.215,33.916,33.916,33.916
			c15.149,0,28.007-9.985,32.347-23.717h58.211c5.633,0,10.199-4.566,10.199-10.199
			C356.758,250.367,352.192,245.801,346.559,245.801z M256,269.518c-7.455,0-13.518-6.064-13.518-13.518s6.064-13.518,13.518-13.518
			s13.518,6.064,13.518,13.518S263.455,269.518,256,269.518z"/>
	</g>
</g>
<g>
</g>
<g>
</g>
<g>
</g>
<g>
</g>
<g>
</g>
<g>
</g>
<g>
</g>
<g>
</g>
<g>
</g>
<g>
</g>
<g>
</g>
<g>
</g>
<g>
</g>
<g>
</g>
<g>
</g>
</svg>
