<?xml version="1.0" encoding="iso-8859-1"?>
<!-- Generator: Adobe Illustrator 19.0.0, SVG Export Plug-In . SVG Version: 6.00 Build 0)  -->
<svg version="1.1" id="Capa_1" xmlns="http://www.w3.org/2000/svg" xmlns:xlink="http://www.w3.org/1999/xlink" x="0px" y="0px"
	 viewBox="0 0 512.002 512.002" style="enable-background:new 0 0 512.002 512.002;" xml:space="preserve">
<g>
	<g>
		<path d="M436.993,75.048C388.648,26.702,324.37,0.078,256,0.078c-59.431,0-117.011,20.702-162.734,58.391L42.019,7.221
			c-5.117-5.123-12.191-7.727-19.422-7.139C15.377,0.668,8.789,4.41,4.522,10.35c-6.923,9.637-5.492,23.557,3.33,32.378
			l50.577,50.577C20.732,139.038,0.039,196.574,0.039,256.04c0,68.37,26.625,132.647,74.97,180.992
			c48.345,48.345,112.622,74.97,180.992,74.97s132.647-26.624,180.992-74.97c48.345-48.345,74.97-112.622,74.97-180.992
			S485.338,123.392,436.993,75.048z M18.458,32.122c-3.624-3.625-4.394-9.344-1.753-13.02c1.718-2.391,4.241-3.836,7.105-4.068
			c2.829-0.234,5.598,0.787,7.6,2.792l99.892,99.892c17.916,17.916,41.489,29.379,68.59,33.501
			c-20.669,11.073-37.654,28.044-48.717,48.685c-4.126-27.089-15.587-50.652-33.497-68.562L18.458,32.122z M151.459,252.013
			l-20.865,17.195l-17.195-20.865C125.659,242.028,140.631,243.471,151.459,252.013z M426.386,426.426
			C380.874,471.937,320.364,497.002,256,497.002s-124.874-25.064-170.386-70.576C40.102,380.914,15.038,320.403,15.038,256.04
			c0-55.497,19.152-109.202,54.055-152.07l25.886,25.886c-59.622,75.872-58.051,183.463,4.383,257.678
			c1.483,1.764,3.606,2.672,5.743,2.672c1.704,0,3.418-0.578,4.824-1.761c3.17-2.667,3.578-7.398,0.911-10.567
			c-57.461-68.303-59.277-167.11-5.166-237.326l1.396,1.396c17.437,17.437,27.919,41.194,30.313,68.703
			c0.186,2.142,0.476,4.312,0.861,6.453c0.587,3.262,1.438,6.513,2.524,9.667c-0.315,1.245-0.607,2.498-0.883,3.758
			c-14.445-3.01-30.077,0.299-42.323,10.39c-1.535,1.265-2.505,3.088-2.696,5.068c-0.191,1.979,0.413,3.955,1.677,5.489
			l27.244,33.059c1.483,1.8,3.629,2.73,5.792,2.73c1.679,0,3.369-0.561,4.765-1.712l33.059-27.244
			c3.197-2.634,3.653-7.361,1.019-10.558c-4.122-5.001-9.02-8.988-14.371-11.958c0.07-0.228,0.131-0.46,0.179-0.698
			c8.172-39.936,39.158-71.503,78.94-80.421c4.042-0.906,6.584-4.917,5.678-8.959s-4.919-6.584-8.959-5.678
			c-1.067,0.239-2.122,0.507-3.177,0.774c-3.154-1.084-6.387-1.941-9.649-2.528c-2.14-0.385-4.312-0.675-6.453-0.861
			c-27.509-2.394-51.266-12.875-68.703-30.312l-1.396-1.396c70.216-54.111,169.023-52.295,237.326,5.166
			c1.406,1.183,3.12,1.761,4.824,1.761c2.137,0,4.26-0.909,5.743-2.672c2.667-3.169,2.259-7.901-0.911-10.567
			c-74.215-62.435-181.804-64.006-257.678-4.383l-25.89-25.89C146.786,34.233,200.535,15.078,256,15.078
			c64.363,0,124.874,25.064,170.386,70.576c45.512,45.512,70.576,106.022,70.576,170.386S471.898,380.914,426.386,426.426z"/>
	</g>
</g>
<g>
	<g>
		<path d="M412.638,124.546c-2.666-3.17-7.398-3.578-10.567-0.911c-3.17,2.667-3.578,7.398-0.911,10.567
			c30.423,36.164,46.126,82.182,44.217,129.58c-1.921,47.677-21.574,92.529-55.339,126.294s-78.617,53.418-126.294,55.339
			c-47.396,1.911-93.416-13.793-129.58-44.216c-3.169-2.667-7.9-2.258-10.567,0.911c-2.667,3.169-2.259,7.901,0.911,10.567
			c36.908,31.049,83.319,47.894,131.501,47.894c2.774,0,5.554-0.056,8.339-0.168c51.454-2.073,99.859-23.282,136.297-59.72
			s57.647-84.843,59.721-136.297C462.425,213.242,445.475,163.579,412.638,124.546z"/>
	</g>
</g>
<g>
	<g>
		<path d="M396.286,257.182c-0.939-2.459-3.099-4.246-5.69-4.708c-19.061-3.399-40.774-0.988-61.137,6.786
			c-20.364,7.775-38.157,20.449-50.102,35.687c-1.624,2.072-2.043,4.843-1.104,7.302c0.939,2.459,3.099,4.246,5.69,4.708
			c5.642,1.006,11.512,1.503,17.514,1.503c14.278,0,29.286-2.815,43.623-8.289c20.364-7.776,38.157-20.45,50.102-35.687
			C396.806,262.412,397.225,259.641,396.286,257.182z M339.729,286.158c-12.642,4.827-25.794,7.311-38.224,7.311
			c-0.084,0-0.168,0-0.253,0c9.3-8.359,20.83-15.335,33.558-20.194c12.642-4.827,25.793-7.311,38.224-7.311c0.085,0,0.169,0,0.253,0
			C363.987,274.323,352.457,281.299,339.729,286.158z"/>
	</g>
</g>
<g>
	<g>
		<path d="M318.965,217.173c-8.322-6.663-18.74-9.684-29.337-8.512c-5.224,0.579-10.18,2.147-14.664,4.582
			c2.357-2.837,4.617-5.785,6.747-8.85c12.439-17.899,19.994-38.397,21.272-57.717c0.174-2.627-1.042-5.152-3.204-6.654
			s-4.954-1.761-7.354-0.683c-17.661,7.936-34.237,22.164-46.677,40.064c-12.438,17.9-19.993,38.397-21.271,57.716
			c-0.174,2.627,1.042,5.153,3.204,6.655c1.277,0.888,2.774,1.341,4.28,1.341c1.043,0,2.091-0.217,3.073-0.659
			c9.18-4.125,18.059-9.961,26.224-17.118c-0.051,0.516-0.052,1.039,0.006,1.562c0.219,1.977,1.215,3.786,2.768,5.029l25.302,20.255
			c1.383,1.107,3.038,1.646,4.682,1.646c2.199,0,4.378-0.963,5.86-2.813l20.256-25.302
			C322.72,224.482,322.198,219.762,318.965,217.173z M241.73,223.558c2.97-12.147,8.563-24.407,16.337-35.595
			c7.775-11.188,17.315-20.705,27.664-27.725c-2.971,12.147-8.563,24.407-16.338,35.595
			C261.619,207.021,252.079,216.538,241.73,223.558z M292.853,237.787l-12.692-10.161c6.728-4.496,15.307-5.446,22.853-2.53
			L292.853,237.787z"/>
	</g>
</g>
<g>
	<g>
		<path d="M251.179,253.887c-2.997-2.859-7.745-2.748-10.604,0.251l-29.567,30.999c-2.858,2.996-2.746,7.744,0.252,10.602
			l30.999,29.567c1.452,1.385,3.315,2.073,5.175,2.073c1.979,0,3.955-0.778,5.428-2.323c9.28-9.73,14.216-22.491,13.898-35.933
			C266.443,275.681,260.909,263.167,251.179,253.887z M246.61,308.728l-19.571-18.667l18.667-19.57
			c3.783,5.562,5.896,12.101,6.058,18.986C251.927,296.362,250.126,302.993,246.61,308.728z"/>
	</g>
</g>
<g>
	<g>
		<path d="M391.583,170.888c-0.762-1.837-2.222-3.297-4.06-4.058c-25.645-10.618-55.148,1.609-65.766,27.255
			c-0.761,1.838-0.76,3.903,0.001,5.741c0.762,1.837,2.222,3.297,4.06,4.058l39.581,16.386c0.938,0.388,1.91,0.572,2.866,0.572
			c2.943,0,5.737-1.744,6.933-4.633l16.386-39.581C392.345,174.79,392.344,172.726,391.583,170.888z M364.207,203.541
			l-24.981-10.342c7.856-11.334,21.748-17.092,35.323-14.639L364.207,203.541z"/>
	</g>
</g>
<g>
	<g>
		<path d="M340.254,355.363c-7.455-9.958-18.342-16.418-30.656-18.189c-1.969-0.281-3.97,0.228-5.562,1.42
			c-1.592,1.192-2.646,2.968-2.929,4.937l-5.561,38.675c-0.589,4.1,2.256,7.901,6.356,8.491l38.675,5.561
			c0.356,0.05,0.713,0.076,1.068,0.076c1.611,0,3.19-0.519,4.495-1.496c1.592-1.192,2.646-2.968,2.929-4.937
			C350.84,377.588,347.709,365.321,340.254,355.363z M311.461,376.916l3.299-22.945c5.317,2.128,9.966,5.68,13.485,10.381
			c3.519,4.701,5.617,10.162,6.161,15.864L311.461,376.916z"/>
	</g>
</g>
<g>
	<g>
		<path d="M282.54,416.177l-3.487-32.223c-0.447-4.118-4.146-7.096-8.264-6.65c-10.599,1.147-20.117,6.353-26.8,14.658
			s-9.732,18.716-8.585,29.315c0.416,3.844,3.667,6.694,7.447,6.694c0.27,0,0.542-0.014,0.816-0.044l32.223-3.487
			c1.978-0.214,3.79-1.205,5.037-2.754C282.174,420.136,282.754,418.154,282.54,416.177z M250.646,412.084
			c0.773-3.882,2.477-7.546,5.029-10.718s5.768-5.62,9.394-7.206l1.75,16.174L250.646,412.084z"/>
	</g>
</g>
<g>
	<g>
		<path d="M252.71,364.876c-8.024-17.621-22.335-34.126-40.297-46.475c-17.962-12.349-38.498-19.801-57.823-20.982
			c-2.637-0.172-5.147,1.068-6.638,3.237c-1.492,2.169-1.736,4.961-0.646,7.357c4.69,10.3,11.541,20.21,20.001,29.14
			c-10.331,1.019-20.261,6.023-27.246,14.749c-2.588,3.233-2.066,7.953,1.168,10.542l25.302,20.256
			c1.336,1.07,2.991,1.645,4.687,1.645c0.275,0,0.551-0.015,0.826-0.045c1.977-0.219,3.786-1.215,5.029-2.768l17.892-22.35
			c16.091,9.533,33.728,15.265,50.461,16.288c0.154,0.01,0.307,0.014,0.459,0.014c2.459,0,4.775-1.208,6.179-3.251
			C253.556,370.064,253.8,367.272,252.71,364.876z M170.051,366.302l-12.7-10.167c3.286-2.206,7.078-3.603,11.125-4.051
			c4.047-0.447,8.052,0.084,11.742,1.518L170.051,366.302z M196.101,342.127c-11.227-7.719-20.792-17.211-27.863-27.525
			c12.163,2.909,24.451,8.441,35.677,16.159c11.227,7.718,20.792,17.211,27.863,27.525
			C219.616,355.376,207.328,349.845,196.101,342.127z"/>
	</g>
</g>
<g>
	<g>
		<path d="M406.975,310.921c-0.151-1.984-1.084-3.827-2.592-5.122c-1.509-1.296-3.478-1.94-5.454-1.79l-38.961,2.954
			c-1.983,0.15-3.826,1.083-5.122,2.591c-1.296,1.509-1.94,3.471-1.79,5.454l2.954,38.961c0.298,3.938,3.586,6.934,7.471,6.934
			c0.19,0,0.382-0.007,0.575-0.022C389.663,358.94,408.916,336.527,406.975,310.921z M370.331,344.46l-1.752-23.106l23.107-1.752
			C389.769,331.176,381.485,340.82,370.331,344.46z"/>
	</g>
</g>
<g>
	<g>
		<path d="M290.926,106.219c-12.806-17.985-37.857-22.199-55.842-9.394c-1.62,1.154-2.716,2.904-3.046,4.866
			c-0.33,1.962,0.133,3.974,1.287,5.594l18.875,26.508c1.462,2.055,3.771,3.15,6.115,3.15c1.505,0,3.024-0.452,4.344-1.391
			l26.508-18.874c1.62-1.153,2.716-2.904,3.046-4.865C292.543,109.852,292.08,107.839,290.926,106.219z M260.068,118.983
			l-9.509-13.355c7.763-2.52,16.352-1.075,22.864,3.846L260.068,118.983z"/>
	</g>
</g>
<g>
	<g>
		<path d="M205.845,192.88c-3.833-1.578-8.214,0.25-9.791,4.079l-3.749,9.103c-1.578,3.83,0.249,8.214,4.079,9.791
			c0.935,0.385,1.902,0.567,2.853,0.567c2.949,0,5.746-1.75,6.938-4.646l3.749-9.103
			C211.501,198.841,209.675,194.457,205.845,192.88z"/>
	</g>
</g>
<g>
	<g>
		<path d="M338.071,123.507l-9.103-8.032c-3.107-2.742-7.847-2.444-10.586,0.661c-2.74,3.107-2.444,7.847,0.662,10.587l9.103,8.032
			c1.426,1.259,3.196,1.876,4.959,1.876c2.077,0,4.145-0.858,5.626-2.538C341.473,130.987,341.176,126.247,338.071,123.507z"/>
	</g>
</g>
<g>
	<g>
		<path d="M413.997,214.219c-3.578-2.085-8.169-0.879-10.257,2.7l-7.497,12.852c-2.087,3.577-0.878,8.17,2.7,10.257
			c1.188,0.693,2.488,1.022,3.772,1.022c2.58,0,5.091-1.333,6.485-3.722l7.497-12.852
			C418.784,220.898,417.575,216.306,413.997,214.219z"/>
	</g>
</g>
<g>
	<g>
		<path d="M207.455,250.447c-2.793-3.06-7.537-3.275-10.596-0.481l-12.316,11.245c-3.059,2.793-3.274,7.537-0.481,10.596
			c1.48,1.62,3.507,2.442,5.541,2.442c1.806,0,3.617-0.648,5.055-1.961l12.316-11.245
			C210.033,258.25,210.248,253.506,207.455,250.447z"/>
	</g>
</g>
<g>
	<g>
		<path d="M127.892,324.791l-11.78-18.207c-2.25-3.478-6.893-4.471-10.371-2.223c-3.478,2.25-4.473,6.894-2.223,10.371l11.78,18.207
			c1.436,2.219,3.845,3.427,6.304,3.427c1.396,0,2.808-0.39,4.067-1.204C129.147,332.912,130.142,328.268,127.892,324.791z"/>
	</g>
</g>
<g>
	<g>
		<path d="M216.858,388.89c-2.928-2.929-7.677-2.929-10.606,0l-11.245,11.245c-2.929,2.929-2.929,7.678,0,10.606
			c1.464,1.464,3.384,2.197,5.303,2.197s3.839-0.732,5.303-2.197l11.245-11.245C219.787,396.567,219.787,391.818,216.858,388.89z"/>
	</g>
</g>
<g>
	<g>
		<path d="M285.158,344.98l-4.819-16.6c-1.155-3.978-5.317-6.267-9.294-5.111c-3.978,1.155-6.266,5.316-5.111,9.294l4.819,16.6
			c0.952,3.279,3.948,5.411,7.199,5.411c0.692,0,1.396-0.097,2.095-0.299C284.024,353.119,286.312,348.958,285.158,344.98z"/>
	</g>
</g>
<g>
	<g>
		<path d="M341.113,322.831c-0.375-4.125-4.025-7.172-8.148-6.79l-5.89,0.536c-4.125,0.375-7.165,4.023-6.79,8.148
			c0.354,3.894,3.625,6.821,7.46,6.821c0.228,0,0.457-0.01,0.688-0.031l5.89-0.536C338.448,330.604,341.488,326.956,341.113,322.831
			z"/>
	</g>
</g>
<g>
	<g>
		<path d="M111.767,174.778c-4.062-0.777-7.999,1.881-8.782,5.949l-2.678,13.922c-0.782,4.068,1.882,8,5.949,8.782
			c0.479,0.092,0.955,0.136,1.425,0.136c3.524,0,6.667-2.496,7.357-6.085l2.678-13.922
			C118.498,179.493,115.835,175.561,111.767,174.778z"/>
	</g>
</g>
<g>
	<g>
		<path d="M212.853,108.634l-20.705-9.996c-3.732-1.803-8.214-0.237-10.015,3.493c-1.801,3.73-0.237,8.214,3.493,10.015
			l20.705,9.996c1.051,0.508,2.162,0.748,3.255,0.748c2.788,0,5.466-1.562,6.759-4.241
			C218.147,114.918,216.583,110.434,212.853,108.634z"/>
	</g>
</g>
<g>
	<g>
		<path d="M424.737,286.112l-2.856-15.707c-0.741-4.075-4.644-6.777-8.721-6.037c-4.075,0.741-6.778,4.646-6.037,8.721l2.856,15.707
			c0.659,3.622,3.815,6.16,7.37,6.16c0.445,0,0.897-0.04,1.351-0.123C422.775,294.092,425.478,290.187,424.737,286.112z"/>
	</g>
</g>
<g>
	<g>
		<path d="M344.035,228.606l-5.712-0.714c-4.111-0.512-7.858,2.401-8.372,6.512c-0.514,4.111,2.402,7.858,6.512,8.372l5.712,0.714
			c0.316,0.04,0.629,0.059,0.939,0.059c3.728,0,6.958-2.776,7.433-6.571C351.061,232.868,348.145,229.12,344.035,228.606z"/>
	</g>
</g>
<g>
	<g>
		<path d="M327.896,149.376c-3.705-1.851-8.209-0.351-10.062,3.354l-2.142,4.284c-1.853,3.704-0.351,8.209,3.354,10.062
			c1.077,0.538,2.221,0.793,3.348,0.793c2.751,0,5.4-1.52,6.714-4.147l2.142-4.284C333.102,155.733,331.6,151.228,327.896,149.376z"
			/>
	</g>
</g>
<g>
	<g>
		<path d="M309.548,406.327h-4.998c-4.142,0-7.5,3.358-7.5,7.5c0,4.142,3.358,7.5,7.5,7.5h4.998c4.142,0,7.5-3.358,7.5-7.5
			C317.048,409.685,313.69,406.327,309.548,406.327z"/>
	</g>
</g>
<g>
	<g>
		<path d="M372.779,136.559l-3.57-7.854c-1.714-3.771-6.162-5.438-9.931-3.724c-3.771,1.714-5.438,6.16-3.724,9.931l3.57,7.854
			c1.256,2.765,3.981,4.398,6.832,4.398c1.038,0,2.093-0.217,3.099-0.674C372.826,144.776,374.493,140.33,372.779,136.559z"/>
	</g>
</g>
<g>
</g>
<g>
</g>
<g>
</g>
<g>
</g>
<g>
</g>
<g>
</g>
<g>
</g>
<g>
</g>
<g>
</g>
<g>
</g>
<g>
</g>
<g>
</g>
<g>
</g>
<g>
</g>
<g>
</g>
</svg>
