<?xml version="1.0" encoding="iso-8859-1"?>
<!-- Generator: Adobe Illustrator 19.0.0, SVG Export Plug-In . SVG Version: 6.00 Build 0)  -->
<svg version="1.1" id="Capa_1" xmlns="http://www.w3.org/2000/svg" xmlns:xlink="http://www.w3.org/1999/xlink" x="0px" y="0px"
	 viewBox="0 0 368 368" style="enable-background:new 0 0 368 368;" xml:space="preserve">
<g>
	<g>
		<path d="M312,48h-72V8c0-4.416-3.576-8-8-8s-8,3.584-8,8v40h-32V8c0-4.416-3.584-8-8-8c-4.416,0-8,3.584-8,8v40h-32V8
			c0-4.416-3.584-8-8-8s-8,3.584-8,8v40H56C25.12,48,0,73.12,0,104s25.12,56,56,56h72v8c0,28.152,20.904,51.456,48,55.36V360
			c0,4.416,3.584,8,8,8s8-3.584,8-8V223.36c27.088-3.904,48-27.208,48-55.36v-8h72c30.872,0,56-25.12,56-56S342.872,48,312,48z
			 M56,144c-22.056,0-40-17.944-40-40c0-22.056,17.944-40,40-40c22.056,0,40,17.944,40,40C96,126.056,78.056,144,56,144z M224,168
			c0,22.056-17.944,40-40,40c-22.056,0-40-17.944-40-40v-8h80V168z M312,144h-24.888C297.52,133.824,304,119.664,304,104
			c0-4.416-3.576-8-8-8s-8,3.584-8,8c0,22.056-17.944,40-40,40h-24.888C233.52,133.824,240,119.664,240,104c0-4.416-3.576-8-8-8
			s-8,3.584-8,8c0,22.056-17.944,40-40,40h-24.88c10.4-10.176,16.88-24.336,16.88-40c0-4.416-3.584-8-8-8s-8,3.584-8,8
			c0,22.056-17.944,40-40,40H95.12c10.4-10.176,16.88-24.336,16.88-40s-6.48-29.824-16.88-40H312c22.056,0,40,17.944,40,40
			C352,126.056,334.056,144,312,144z"/>
	</g>
</g>
<g>
</g>
<g>
</g>
<g>
</g>
<g>
</g>
<g>
</g>
<g>
</g>
<g>
</g>
<g>
</g>
<g>
</g>
<g>
</g>
<g>
</g>
<g>
</g>
<g>
</g>
<g>
</g>
<g>
</g>
</svg>
