<svg id="Layer_5" enable-background="new 0 0 64 64" height="512" viewBox="0 0 64 64" width="512" xmlns="http://www.w3.org/2000/svg"><g><path d="m17.831 37h-3.662c-2.299 0-4.169 1.87-4.169 4.169 0 3.945 2.102 7.658 5.485 9.688l.515.31.515-.309c3.383-2.031 5.485-5.744 5.485-9.689 0-2.299-1.87-4.169-4.169-4.169zm-1.831 11.81c-2.481-1.725-4-4.599-4-7.641 0-1.196.973-2.169 2.169-2.169h3.662c1.196 0 2.169.973 2.169 2.169 0 3.042-1.519 5.916-4 7.641z"/><path d="m61 47v-7-5-1c0-1.654-1.346-3-3-3h-8.54c.762-.848 1.283-1.912 1.464-3.089.851.671 1.91 1.089 3.076 1.089h5v-1c0-2.757-2.243-5-5-5h-2.268c1.239-1.797 2.268-3.98 2.268-6h-2c0 1.612-1.061 3.911-2.656 5.872-1.094-1.15-2.635-1.872-4.344-1.872-3.309 0-6 2.691-6 6 0 1.538.586 2.937 1.54 4h-9.54v-4.187c0-3.306-2.254-6.116-5.481-6.833l-3.519-.782v-8.198h1c1.103 0 2-.897 2-2v-2c0-1.103-.897-2-2-2h-1v-2c0-1.103-.897-2-2-2h-8c-1.103 0-2 .897-2 2v2h-1c-1.103 0-2 .897-2 2v2c0 1.103.897 2 2 2h1v8.198l-3.519.782c-3.227.717-5.481 3.527-5.481 6.833v29.187c0 3.86 3.141 7 7 7h16c3.859 0 7-3.14 7-7v-3h8.968c-.153 3.002-1.345 5.805-3.409 8h-2.559v2h24v-2h-2.559c-2.065-2.195-3.256-4.998-3.409-8h5.968c2.757 0 5-2.243 5-5v-1zm-30 0v-4h3c1.654 0 3-1.346 3-3v-2c0-.551.448-1 1-1s1 .449 1 1v4c0 1.654 1.346 3 3 3s3-1.346 3-3v-4c0-.551.448-1 1-1s1 .449 1 1v4c0 1.654 1.346 3 3 3s3-1.346 3-3v-4c0-.551.448-1 1-1s1 .449 1 1v2c0 1.654 1.346 3 3 3 .352 0 .686-.072 1-.184v4.184zm-2-5.414-10.586-10.586h10.586zm-26 2.828 13-13 13 13v8.586h-26zm0-2.828v-10.586h10.586zm53.829-14.586h-2.829c-1.304 0-2.416-.836-2.829-2h2.829c1.304 0 2.416.836 2.829 2zm-15.829 0c0-2.206 1.794-4 4-4s4 1.794 4 4-1.794 4-4 4-4-1.794-4-4zm17 6c.552 0 1 .449 1 1v1 5c0 .551-.448 1-1 1s-1-.449-1-1v-2c0-1.654-1.346-3-3-3s-3 1.346-3 3v4c0 .551-.448 1-1 1s-1-.449-1-1v-4c0-1.654-1.346-3-3-3s-3 1.346-3 3v4c0 .551-.448 1-1 1s-1-.449-1-1v-4c0-1.654-1.346-3-3-3s-3 1.346-3 3v2c0 .551-.448 1-1 1h-3v-8zm-46-30h8v2h-8zm-3 4h14v2h-14zm11 4v4h-8v-4zm-13.085 10.932 5.085-1.13v-3.802h8v3.802l5.085 1.13c2.305.512 3.915 2.519 3.915 4.881v2.187h-26v-2.187c0-2.362 1.61-4.369 3.915-4.881zm17.085 39.068h-16c-2.757 0-5-2.243-5-5v-1h26v1c0 2.757-2.243 5-5 5zm28.847 0h-13.694c1.711-2.323 2.687-5.082 2.815-8h8.064c.128 2.918 1.105 5.677 2.815 8zm5.153-10h-27v-2h29.829c-.413 1.164-1.525 2-2.829 2z"/></g></svg>